HIERARCHY
ROOT Hips
{
    OFFSET 0.000000 0.000000 0.000000
    CHANNELS 6 Xposition Yposition Zposition Zrotation Yrotation Xrotation
    JOINT Chest
    {
        OFFSET 0.000000 1.634758 -0.000000
        CHANNELS 3 Zrotation Yrotation Xrotation
        JOINT Chest2
        {
            OFFSET 0.000000 2.197341 0.000000
            CHANNELS 3 Zrotation Yrotation Xrotation
            JOINT Neck
            {
                OFFSET 0.000000 0.961544 0.000000
                CHANNELS 3 Zrotation Yrotation Xrotation
                JOINT Head
                {
                    OFFSET 0.000000 0.632542 -0.032565
                    CHANNELS 3 Zrotation Yrotation Xrotation
                    End Site
                    {
                        OFFSET -0.000001 0.439502 2.922845
                    }
                }
            }
            JOINT LeftCollar
            {
                OFFSET 0.167536 0.778237 -0.168280
                CHANNELS 3 Zrotation Yrotation Xrotation
                JOINT LeftShoulder
                {
                    OFFSET 0.831514 -0.002900 0.006458
                    CHANNELS 3 Zrotation Yrotation Xrotation
                    JOINT LeftElbow
                    {
                        OFFSET 2.272872 -0.026639 0.059314
                        CHANNELS 3 Zrotation Yrotation Xrotation
                        JOINT LeftWrist
                        {
                            OFFSET 2.081982 -0.024402 0.054333
                            CHANNELS 3 Zrotation Yrotation Xrotation
                            JOINT LeftHandThumb1
                            {
                                OFFSET 0.218903 -0.128645 0.283837
                                CHANNELS 3 Zrotation Yrotation Xrotation
                                JOINT LeftHandThumb2
                                {
                                    OFFSET 0.137157 -0.025101 0.077902
                                    CHANNELS 3 Zrotation Yrotation Xrotation
                                    JOINT LeftHandThumb3
                                    {
                                        OFFSET 0.174382 -0.013597 -0.054271
                                        CHANNELS 3 Zrotation Yrotation Xrotation
                                        End Site
                                        {
                                            OFFSET 0.265225 -0.014064 -0.035976
                                        }
                                    }
                                }
                            }
                            JOINT LeftHandFore1
                            {
                                OFFSET 0.767340 -0.016076 0.196678
                                CHANNELS 3 Zrotation Yrotation Xrotation
                                JOINT LeftHandFore2
                                {
                                    OFFSET 0.209402 -0.053339 0.017355
                                    CHANNELS 3 Zrotation Yrotation Xrotation
                                    JOINT LeftHandFore3
                                    {
                                        OFFSET 0.112817 -0.062483 0.011445
                                        CHANNELS 3 Zrotation Yrotation Xrotation
                                        End Site
                                        {
                                            OFFSET 0.141705 -0.130702 0.014270
                                        }
                                    }
                                }
                            }
                            JOINT LeftHandMiddle1
                            {
                                OFFSET 0.709887 -0.008320 0.018526
                                CHANNELS 3 Zrotation Yrotation Xrotation
                                JOINT LeftHandMiddle2
                                {
                                    OFFSET 0.234000 -0.070929 0.016640
                                    CHANNELS 3 Zrotation Yrotation Xrotation
                                    JOINT LeftHandMiddle3
                                    {
                                        OFFSET 0.117695 -0.086117 0.010730
                                        CHANNELS 3 Zrotation Yrotation Xrotation
                                        End Site
                                        {
                                            OFFSET 0.132876 -0.194099 0.017313
                                        }
                                    }
                                }
                            }
                            JOINT LeftHandRing1
                            {
                                OFFSET 0.743817 -0.005823 -0.153668
                                CHANNELS 3 Zrotation Yrotation Xrotation
                                JOINT LeftHandRing2
                                {
                                    OFFSET 0.336037 -0.108665 0.002139
                                    CHANNELS 3 Zrotation Yrotation Xrotation
                                    JOINT LeftHandRing3
                                    {
                                        OFFSET 0.089045 -0.103016 0.008018
                                        CHANNELS 3 Zrotation Yrotation Xrotation
                                        End Site
                                        {
                                            OFFSET 0.049840 -0.109042 0.006750
                                        }
                                    }
                                }
                            }
                            JOINT LeftHandLittle1
                            {
                                OFFSET 0.689408 -0.053302 -0.308304
                                CHANNELS 3 Zrotation Yrotation Xrotation
                                JOINT LeftHandLittle2
                                {
                                    OFFSET 0.193649 -0.023348 -0.003025
                                    CHANNELS 3 Zrotation Yrotation Xrotation
                                    JOINT LeftHandLittle3
                                    {
                                        OFFSET 0.097052 -0.070999 0.006017
                                        CHANNELS 3 Zrotation Yrotation Xrotation
                                        End Site
                                        {
                                            OFFSET 0.065733 -0.174840 0.037399
                                        }
                                    }
                                }
                            }
                        }
                    }
                }
            }
            JOINT RightCollar
            {
                OFFSET -0.167536 0.778237 -0.168280
                CHANNELS 3 Zrotation Yrotation Xrotation
                JOINT RightShoulder
                {
                    OFFSET -0.831514 -0.002900 0.006457
                    CHANNELS 3 Zrotation Yrotation Xrotation
                    JOINT RightElbow
                    {
                        OFFSET -2.272872 -0.026639 0.059313
                        CHANNELS 3 Zrotation Yrotation Xrotation
                        JOINT RightWrist
                        {
                            OFFSET -2.081982 -0.024402 0.054331
                            CHANNELS 3 Zrotation Yrotation Xrotation
                            JOINT RightHandThumb1
                            {
                                OFFSET -0.218911 -0.128571 0.283837
                                CHANNELS 3 Zrotation Yrotation Xrotation
                                JOINT RightHandThumb2
                                {
                                    OFFSET -0.137157 -0.025101 0.077902
                                    CHANNELS 3 Zrotation Yrotation Xrotation
                                    JOINT RightHandThumb3
                                    {
                                        OFFSET -0.097615 -0.150407 0.037262
                                        CHANNELS 3 Zrotation Yrotation Xrotation
                                        End Site
                                        {
                                            OFFSET -0.164067 -0.194342 0.084556
                                        }
                                    }
                                }
                            }
                            JOINT RightHandFore1
                            {
                                OFFSET -0.767344 -0.015991 0.196679
                                CHANNELS 3 Zrotation Yrotation Xrotation
                                JOINT RightHandFore2
                                {
                                    OFFSET -0.209417 -0.053291 0.017358
                                    CHANNELS 3 Zrotation Yrotation Xrotation
                                    JOINT RightHandFore3
                                    {
                                        OFFSET -0.113045 -0.062512 0.008669
                                        CHANNELS 3 Zrotation Yrotation Xrotation
                                        End Site
                                        {
                                            OFFSET -0.141798 -0.130713 0.013194
                                        }
                                    }
                                }
                            }
                            JOINT RightHandMiddle1
                            {
                                OFFSET -0.709887 -0.008302 0.018525
                                CHANNELS 3 Zrotation Yrotation Xrotation
                                JOINT RightHandMiddle2
                                {
                                    OFFSET -0.233989 -0.070949 0.016648
                                    CHANNELS 3 Zrotation Yrotation Xrotation
                                    JOINT RightHandMiddle3
                                    {
                                        OFFSET -0.117942 -0.086166 0.007028
                                        CHANNELS 3 Zrotation Yrotation Xrotation
                                        End Site
                                        {
                                            OFFSET -0.133736 -0.194223 0.004730
                                        }
                                    }
                                }
                            }
                            JOINT RightHandRing1
                            {
                                OFFSET -0.743819 -0.005785 -0.153669
                                CHANNELS 3 Zrotation Yrotation Xrotation
                                JOINT RightHandRing2
                                {
                                    OFFSET -0.336043 -0.108645 0.002198
                                    CHANNELS 3 Zrotation Yrotation Xrotation
                                    JOINT RightHandRing3
                                    {
                                        OFFSET -0.089710 -0.101397 -0.016605
                                        CHANNELS 3 Zrotation Yrotation Xrotation
                                        End Site
                                        {
                                            OFFSET -0.050519 -0.107388 -0.018328
                                        }
                                    }
                                }
                            }
                            JOINT RightHandLittle1
                            {
                                OFFSET -0.689403 -0.053298 -0.308303
                                CHANNELS 3 Zrotation Yrotation Xrotation
                                JOINT RightHandLittle2
                                {
                                    OFFSET -0.193653 -0.023340 -0.003017
                                    CHANNELS 3 Zrotation Yrotation Xrotation
                                    JOINT RightHandLittle3
                                    {
                                        OFFSET -0.096826 -0.070499 -0.012252
                                        CHANNELS 3 Zrotation Yrotation Xrotation
                                        End Site
                                        {
                                            OFFSET -0.064643 -0.172516 -0.048456
                                        }
                                    }
                                }
                            }
                        }
                    }
                }
            }
        }
    }
    JOINT LeftHip
    {
        OFFSET 0.685143 0.673822 -0.044491
        CHANNELS 3 Zrotation Yrotation Xrotation
        JOINT LeftKnee
        {
            OFFSET 0.085364 -3.750208 0.017676
            CHANNELS 3 Zrotation Yrotation Xrotation
            JOINT LeftAnkle
            {
                OFFSET 0.094583 -4.155206 0.019585
                CHANNELS 3 Zrotation Yrotation Xrotation
                JOINT LeftToe
                {
                    OFFSET -0.000000 -0.395925 0.621478
                    CHANNELS 3 Zrotation Yrotation Xrotation
                    End Site
                    {
                        OFFSET -0.000000 -0.077878 0.321152
                    }
                }
            }
        }
    }
    JOINT RightHip
    {
        OFFSET -0.685143 0.673822 -0.044492
        CHANNELS 3 Zrotation Yrotation Xrotation
        JOINT RightKnee
        {
            OFFSET -0.085364 -3.750208 0.017677
            CHANNELS 3 Zrotation Yrotation Xrotation
            JOINT RightAnkle
            {
                OFFSET -0.094583 -4.155206 0.019585
                CHANNELS 3 Zrotation Yrotation Xrotation
                JOINT RightToe
                {
                    OFFSET -0.000000 -0.395925 0.621478
                    CHANNELS 3 Zrotation Yrotation Xrotation
                    End Site
                    {
                        OFFSET -0.000000 -0.077878 0.321152
                    }
                }
            }
        }
    }
}
MOTION
Frames: 4
Frame Time: 0.033333
-0.025405 8.274338 -0.489262 180.000000 -0.000011 180.000000 1.302296 -0.258228 -3.258226 -0.002557 0.040096 -3.645258 0.872107 -0.119601 3.359742 0.007729 -0.150065 8.556592 -14.686143 0.158360 0.010882 -61.019123 11.233441 0.838279 0.054113 -22.560413 -0.278644 14.132957 -2.494005 11.368478 0.000000 -0.000002 -0.000003 -0.000001 -0.000002 0.000005 0.000001 -0.000000 -0.000001 0.000005 -0.000003 -0.000001 -0.000002 0.000002 0.000000 0.000007 -0.000000 0.000000 -0.000002 -0.000002 0.000001 0.000007 -0.000002 0.000003 0.000002 -0.000000 -0.000003 0.000003 -0.000000 -0.000001 -0.000001 -0.000002 -0.000001 -0.000004 -0.000000 -0.000000 0.000007 -0.000002 -0.000002 -0.000004 0.000002 -0.000003 0.000004 -0.000002 0.000000 14.293428 0.515039 -0.011860 58.349472 -8.577445 1.604135 -0.052673 22.279989 -0.274807 -12.166358 4.674066 8.240881 0.000004 -0.000005 -0.000005 0.000003 -0.000000 0.000006 -0.000001 0.000005 -0.000000 0.000002 -0.000000 -0.000003 -0.000002 -0.000000 -0.000000 0.000007 0.000003 -0.000002 0.000000 0.000002 -0.000000 0.000000 -0.000000 0.000000 -0.000004 0.000002 -0.000002 -0.000001 0.000002 -0.000001 0.000005 -0.000002 0.000003 0.000001 -0.000002 -0.000001 0.000002 -0.000003 -0.000003 0.000001 -0.000003 -0.000000 -0.000009 -0.000000 -0.000002 -0.758340 1.345631 -4.299813 0.042945 0.331897 14.743215 2.897362 0.431101 -14.943633 0.028981 0.190873 -4.996596 1.166646 7.232719 -4.120794 -0.043358 -0.333512 14.816497 -0.827159 -9.147146 -15.091909 -0.017489 -0.112315 -4.781054
-0.025405 8.274338 -0.489262 180.000000 -0.000011 180.000000 1.300625 -0.266898 -3.256704 -0.010805 0.042048 -3.650360 0.835012 -0.123435 3.369107 0.007865 -0.152694 8.575406 -14.649460 0.115988 0.011348 -60.884510 11.527349 1.059239 0.058941 -23.465179 -0.291134 13.473617 -2.228382 12.355548 0.000005 -0.000003 -0.000006 -0.050720 0.121562 -0.092611 -0.003695 0.039019 0.001730 0.031772 -0.143666 -0.012806 -0.311007 -0.014010 0.003482 -0.185078 -0.007798 0.006771 -0.323094 -0.057339 0.011806 -0.452017 -0.019516 0.023041 -0.313628 -0.010930 0.017158 -0.025541 0.011212 0.019509 -0.507916 -0.023125 0.003018 -0.159798 -0.012100 0.005281 -0.222346 -0.175941 0.061262 -0.417342 -0.094668 0.028738 -0.504827 -0.093577 -0.013546 14.288292 0.437259 -0.012201 58.228252 -8.528821 1.448577 -0.049473 21.643673 -0.266154 -12.061611 4.676335 8.035179 0.000002 -0.000000 0.000003 -0.285263 0.221893 0.136101 -0.132549 0.042952 -0.117842 -0.248834 0.091262 0.013659 -0.016693 0.000150 -0.000875 -0.152167 0.000140 -0.018163 -0.801425 -0.005698 -0.030830 0.136122 -0.003251 0.011645 -0.013614 0.000205 -0.001111 -0.212821 -0.080811 0.010005 0.193335 -0.034822 0.009747 -0.176449 0.037248 -0.004150 0.060556 -0.021124 0.012144 0.105884 -0.030198 -0.009917 0.196723 -0.047553 0.000639 -0.761288 1.292693 -4.298684 0.042946 0.331897 14.743215 2.957067 0.477310 -14.943838 0.029823 0.196332 -4.993045 1.164251 7.196747 -4.193286 -0.044156 -0.336516 14.953082 -0.750025 -9.128350 -15.151979 -0.016586 -0.106157 -4.751517
-0.025405 8.274338 -0.489262 180.000000 -0.000011 180.000000 1.291167 -0.264892 -3.253891 -0.026943 0.042931 -3.659828 0.729162 -0.137698 3.393610 0.009075 -0.176221 8.624722 -14.549298 0.002476 0.011365 -60.510059 12.254063 1.665972 0.072578 -25.802650 -0.324218 11.767182 -1.522996 14.542774 0.000002 -0.000002 0.000009 -0.153396 0.364385 -0.277867 -0.011059 0.117210 0.005179 0.095780 -0.430817 -0.038613 -0.933054 -0.042004 0.010666 -0.555302 -0.023228 0.020422 -0.969423 -0.171805 0.036433 -1.356092 -0.058005 0.069587 -0.940788 -0.032498 0.051635 -0.076819 0.033627 0.058612 -1.523693 -0.069306 0.009694 -0.479381 -0.036234 0.015912 -0.667754 -0.527594 0.185999 -1.252171 -0.283352 0.088264 -1.514515 -0.281103 -0.038182 14.271254 0.230917 -0.011948 57.894165 -8.367349 1.022039 -0.041158 19.863567 -0.242342 -11.786125 4.682611 7.522383 0.000001 -0.000005 0.000010 -0.852385 0.670383 0.404089 -0.397849 0.128010 -0.353751 -0.746489 0.273924 0.039779 -0.050133 0.000468 -0.002632 -0.456432 0.000306 -0.054527 -2.404213 -0.018380 -0.092233 0.408459 -0.009788 0.034910 -0.040753 0.000613 -0.003333 -0.638324 -0.242320 0.030958 0.580083 -0.104652 0.028871 -0.529415 0.111718 -0.012776 0.181583 -0.063591 0.036226 0.317635 -0.090538 -0.029922 0.590108 -0.142632 0.001409 -0.769441 1.146338 -4.295550 0.042946 0.331897 14.743217 3.122262 0.604415 -14.943804 0.032147 0.211389 -4.983257 1.157609 7.097453 -4.400271 -0.046478 -0.345091 15.343322 -0.535960 -9.075999 -15.321540 -0.014106 -0.089403 -4.665481
-0.025405 8.274338 -0.489262 180.000000 -0.000011 180.000000 1.265830 -0.256498 -3.252421 -0.022199 0.041280 -3.664919 0.562806 -0.155688 3.428042 0.011035 -0.214285 8.694408 -14.402322 -0.161246 0.010188 -59.942986 13.171932 2.568345 0.093912 -28.958279 -0.371021 9.421627 -0.514421 16.760618 -0.000003 -0.000002 0.000003 -0.231476 0.546215 -0.416873 -0.016600 0.175683 0.007771 0.143728 -0.646225 -0.058176 -1.399549 -0.062950 0.016254 -0.832913 -0.034660 0.030750 -1.454212 -0.257490 0.055744 -2.034122 -0.086378 0.104881 -1.411215 -0.048433 0.077654 -0.115216 0.050487 0.087884 -2.285606 -0.103872 0.015225 -0.718999 -0.054291 0.023978 -1.002278 -0.790380 0.281266 -1.878442 -0.424266 0.134716 -2.271706 -0.421997 -0.054480 14.238273 -0.062258 -0.010417 57.375278 -7.961339 0.393330 -0.029384 16.951324 -0.204490 -11.397999 4.691992 6.858958 0.000001 0.000003 -0.000007 -1.274920 1.010893 0.601418 -0.597055 0.191082 -0.530944 -1.119653 0.411094 0.058315 -0.075174 0.000693 -0.003943 -0.684640 0.000365 -0.081817 -3.606353 -0.028996 -0.138058 0.612692 -0.014746 0.052338 -0.061190 0.000919 -0.005004 -0.957572 -0.363341 0.047432 0.870073 -0.157078 0.042912 -0.794210 0.167558 -0.019546 0.272383 -0.095408 0.054190 0.476446 -0.135709 -0.045064 0.885193 -0.213977 0.001561 -0.781773 0.925247 -4.290776 0.042946 0.331897 14.743215 3.372092 0.795121 -14.942037 0.035653 0.234044 -4.968743 1.147519 6.947675 -4.722723 -0.050212 -0.358424 15.951678 -0.211689 -8.995337 -15.581142 -0.010420 -0.065014 -4.526940
